<?xml version="1.0" encoding="utf-8"?>
<!-- Generator: Adobe Illustrator 24.2.3, SVG Export Plug-In . SVG Version: 6.00 Build 0)  -->
<svg version="1.1" id="Layer_1" xmlns="http://www.w3.org/2000/svg" xmlns:xlink="http://www.w3.org/1999/xlink" x="0px" y="0px"
	 viewBox="0 0 2108.7 512" style="enable-background:new 0 0 2108.7 512;" xml:space="preserve">
<style type="text/css">
	.st0{fill:#00567D;}
	.st1{fill:#7F2629;}
</style>
<g>
	<rect x="29.1" y="470" class="st0" width="713.4" height="5"/>
	<g>
		<path class="st1" d="M319.2,148.3h-101l0.7-69.5h98.2h85.1c16,28.6,25.1,61.7,25.1,96.8c0,109.6-88.8,198.5-198.5,198.5
			c-3.6,0-7.2-0.1-10.8-0.2V228.1h101.1V148.3z"/>
		<path class="st0" d="M115.2,77.1v261.2C64,302.4,30.5,242.9,30.5,175.6S64,48.8,115.2,12.9V77.1z"/>
		<polygon class="st0" points="470.5,372.8 546.5,372.8 546.5,233.6 703.7,233.6 703.7,163.5 546.5,163.5 546.5,83.7 703.7,83.7 
			703.7,13.5 470.5,13.5 		"/>
		<polygon class="st0" points="1725.4,83.7 1725.4,13.6 1568.1,13.6 1492.2,13.6 1492.2,372.8 1568.1,372.8 1725.4,372.8 
			1725.4,302.6 1568.1,302.6 1568.1,233.6 1568.1,222.9 1725.4,222.9 1725.4,152.7 1568.1,152.7 1568.1,83.7 		"/>
		<rect x="743.6" y="124.1" class="st0" width="77" height="248.6"/>
		<rect x="743.6" y="13.5" class="st1" width="77" height="70.7"/>
		<path class="st0" d="M1096.7,187.5c26-17.7,35.5-49.3,35.5-73.1c0-32.4-16.5-63.3-43-80.7c-21.2-13.7-47.8-20.1-83.6-20.1H861.4
			v359.8h144.2c38.3,0,69.3-4.2,96.3-24.8c24.7-18.9,37.7-47.5,37.7-82.8C1139.6,233.3,1123.4,204.3,1096.7,187.5 M936.9,220.4h73.1
			c34.9,0,52.6,14.7,52.6,43.8c0,35.6-38.1,39.4-54.5,39.4h-71.2V220.4z M1009.5,154.7h-72.6V80.8h71.2c31.3,0,47.2,12.6,47.2,37.4
			C1055.3,127.3,1055.3,154.7,1009.5,154.7"/>
		<path class="st0" d="M1451.8,127.5c0-56.7-39.2-114-126.6-114h-152.5v359.2h76.4V241.9h65.9l57.6,130.8h82.7l-64.9-144.6
			C1428.6,211,1451.8,173.2,1451.8,127.5 M1248.7,81.8h76.5c33.3,0,50.7,22.9,50.7,45.7c0,28.9-17.7,44.8-49.7,44.8h-77.5V81.8z"/>
		<polygon class="st0" points="1967.1,190.5 2077.7,13.6 1993.9,13.6 1922.3,129 1848.3,13.6 1840.1,13.6 1765.7,13.6 1814.3,92.7 
			1876.1,190.1 1763.2,372.8 1846.4,372.8 1920.4,252.7 1994.4,372.8 2079,372.8 		"/>
		<path class="st0" d="M834.2,425.5c-1.3-2.1-2.9-3.8-4.8-5.2c-1.9-1.4-4-2.5-6.3-3.2c-2.3-0.7-4.7-1.1-7.2-1.1
			c-4.6,0-8.5,0.9-11.8,2.6s-5.9,4-8,6.9c-2.1,2.8-3.6,6.1-4.6,9.7c-1,3.6-1.5,7.3-1.5,11.1c0,3.7,0.5,7.4,1.5,11.1
			c1,3.6,2.6,6.9,4.6,9.7c2.1,2.9,4.8,5.2,8,6.9c3.3,1.8,7.2,2.6,11.8,2.6c3.2,0,6.1-0.6,8.7-1.8c2.6-1.2,4.8-2.7,6.7-4.7
			c1.9-2,3.4-4.3,4.5-7c1.2-2.7,1.9-5.6,2.2-8.6h6.5c-0.5,4.3-1.4,8.1-3,11.5c-1.5,3.4-3.6,6.3-6,8.7c-2.4,2.4-5.3,4.2-8.6,5.5
			c-3.3,1.3-7,1.9-11.1,1.9c-5.4,0-10.1-1-14.3-2.9c-4.1-2-7.5-4.6-10.2-7.9c-2.7-3.3-4.7-7.1-6.1-11.4c-1.4-4.3-2-8.8-2-13.6
			s0.7-9.3,2-13.6c1.4-4.3,3.4-8.1,6.1-11.4c2.7-3.3,6.1-6,10.2-7.9c4.1-2,8.8-2.9,14.3-2.9c3.3,0,6.5,0.5,9.6,1.4
			c3.1,1,5.9,2.4,8.5,4.3c2.5,1.9,4.7,4.3,6.4,7c1.7,2.8,2.8,6,3.3,9.6h-6.6C836.5,430,835.6,427.6,834.2,425.5"/>
		<path class="st0" d="M884.7,431.6c2.9,1.4,5.4,3.3,7.4,5.7c2,2.4,3.5,5.1,4.5,8.4c1,3.2,1.5,6.6,1.5,10.2s-0.5,7-1.5,10.2
			c-1,3.2-2.5,6-4.5,8.4c-2,2.4-4.4,4.3-7.4,5.7c-2.9,1.4-6.3,2.1-10.1,2.1c-3.8,0-7.2-0.7-10-2.1c-2.9-1.4-5.4-3.3-7.4-5.7
			c-2-2.3-3.5-5.2-4.5-8.4c-1-3.2-1.6-6.6-1.6-10.2c0-3.6,0.5-7,1.6-10.2c1-3.2,2.5-6,4.5-8.4c2-2.4,4.5-4.3,7.4-5.7
			c2.9-1.4,6.3-2.1,10-2.1C878.3,429.5,881.7,430.2,884.7,431.6 M866.9,436.4c-2.2,1.3-4,2.8-5.5,4.9c-1.4,2-2.5,4.3-3.3,6.8
			c-0.8,2.6-1.1,5.1-1.1,7.8c0,2.6,0.4,5.2,1.1,7.8c0.7,2.5,1.8,4.8,3.3,6.8c1.4,2,3.3,3.6,5.5,4.8s4.7,1.8,7.6,1.8s5.4-0.6,7.6-1.8
			c2.2-1.3,4-2.9,5.5-4.8c1.4-2.1,2.5-4.3,3.3-6.8c0.7-2.6,1.1-5.1,1.1-7.8c0-2.7-0.4-5.2-1.1-7.8c-0.7-2.5-1.8-4.8-3.3-6.8
			c-1.4-2-3.3-3.6-5.5-4.9c-2.2-1.2-4.7-1.8-7.6-1.8C871.7,434.6,869.1,435.2,866.9,436.4"/>
		<path class="st0" d="M913.2,430.9v8.6h0.2c1.2-3,3.2-5.5,6.2-7.3c2.9-1.8,6.2-2.8,9.7-2.8c3.5,0,6.4,0.4,8.7,1.4
			c2.3,0.9,4.3,2.2,5.7,3.8c1.4,1.7,2.4,3.6,3,6c0.6,2.4,0.9,5.1,0.9,8v32h-6.1v-31.1c0-2.1-0.2-4.1-0.6-5.9s-1.1-3.4-2.1-4.8
			c-1-1.3-2.3-2.4-3.9-3.1c-1.6-0.7-3.7-1.2-6.1-1.2s-4.6,0.4-6.5,1.3c-1.9,0.8-3.5,2.1-4.8,3.6c-1.3,1.5-2.3,3.4-3.1,5.4
			c-0.7,2.1-1.1,4.3-1.2,6.8v29h-6.1v-49.8L913.2,430.9L913.2,430.9z"/>
		<path class="st0" d="M987.7,440.6c-0.7-1.4-1.6-2.5-2.9-3.4c-1.2-0.9-2.6-1.5-4.1-2c-1.5-0.4-3.2-0.6-5-0.6
			c-1.4,0-2.7,0.1-4.1,0.4c-1.4,0.3-2.7,0.8-3.8,1.5c-1.2,0.7-2.1,1.6-2.8,2.6c-0.7,1.1-1.1,2.4-1.1,4.1c0,1.4,0.3,2.5,1,3.4
			c0.7,1,1.5,1.7,2.6,2.4c1,0.6,2.1,1.2,3.4,1.5c1.2,0.4,2.4,0.7,3.4,1l8.1,1.9c1.7,0.2,3.5,0.7,5.1,1.4c1.7,0.7,3.2,1.6,4.5,2.7
			c1.4,1.1,2.4,2.5,3.3,4.1c0.8,1.6,1.2,3.6,1.2,5.7c0,2.7-0.6,5-1.8,6.9c-1.2,1.9-2.8,3.4-4.7,4.6c-1.9,1.2-4.1,2.1-6.4,2.6
			c-2.4,0.5-4.7,0.8-7,0.8c-5.9,0-10.6-1.4-14.3-4.2c-3.6-2.8-5.7-7.2-6.3-13.3h6.1c0.2,4.2,1.8,7.2,4.5,9.3s6.1,3.1,10.2,3.1
			c1.5,0,3-0.1,4.6-0.5c1.6-0.3,3-0.8,4.4-1.6s2.4-1.8,3.3-2.9c0.9-1.2,1.3-2.7,1.3-4.4c0-1.5-0.3-2.7-0.9-3.7
			c-0.6-1-1.4-1.9-2.5-2.5c-1-0.7-2.2-1.3-3.6-1.7c-1.3-0.5-2.7-0.8-4-1.2l-7.9-1.7c-2-0.5-3.8-1.1-5.5-1.8
			c-1.7-0.7-3.2-1.5-4.4-2.5c-1.3-1-2.2-2.2-2.9-3.6c-0.7-1.4-1.1-3.2-1.1-5.4c0-2.5,0.6-4.6,1.7-6.4c1.1-1.8,2.6-3.2,4.4-4.3
			c1.8-1.1,3.8-2,6-2.4c2.2-0.6,4.4-0.8,6.6-0.8c2.5,0,4.8,0.3,7,1c2.2,0.6,4.1,1.6,5.7,3c1.6,1.3,2.9,3,3.9,5
			c0.9,2,1.5,4.3,1.7,7.1h-6.1C988.8,443.6,988.4,442,987.7,440.6"/>
		<path class="st0" d="M1025.3,430.9v5.1h-10.1v33.6c0,2,0.3,3.6,0.8,4.7c0.5,1.1,1.9,1.7,4.1,1.8c1.7,0,3.5-0.1,5.2-0.2v5.1
			c-0.9,0-1.8,0-2.7,0.1c-0.9,0.1-1.8,0.1-2.7,0.1c-4,0-6.9-0.7-8.5-2.4c-1.6-1.6-2.4-4.5-2.3-8.7V436h-8.7v-5.1h8.7v-15h6.1v15
			L1025.3,430.9L1025.3,430.9z"/>
		<path class="st0" d="M1039.6,430.9v11.7h0.2c1.5-4,3.9-7.2,7.2-9.3c3.2-2.2,7.1-3.2,11.6-3v6.1c-2.8-0.1-5.3,0.2-7.5,1.1
			c-2.2,0.9-4.2,2.1-5.8,3.8c-1.6,1.6-2.9,3.5-3.8,5.7c-0.9,2.2-1.4,4.7-1.4,7.3v26.6h-6.1v-49.8L1039.6,430.9L1039.6,430.9z"/>
		<path class="st0" d="M1099.2,480.7v-9h-0.2c-1.6,3.3-3.9,5.9-7,7.7c-3.1,1.8-6.4,2.7-10.2,2.7c-3.1,0-5.8-0.4-8-1.4
			c-2.2-0.8-4-2.1-5.4-3.7c-1.4-1.6-2.4-3.6-3-5.8c-0.7-2.3-1-5-1-7.9v-32.3h6.1v32.4c0.1,4.6,1.2,7.9,3.1,10.3
			c2,2.3,5.4,3.5,10.2,3.5c2.6,0,4.9-0.6,6.8-1.7c1.9-1.1,3.4-2.6,4.6-4.5c1.2-1.8,2.1-4,2.7-6.4c0.6-2.5,0.9-4.9,0.9-7.4v-26.2h6.1
			v49.8H1099.2z"/>
		<path class="st0" d="M1146.8,437.8c-2.2-2.1-5.4-3.2-9.4-3.2c-2.9,0-5.4,0.6-7.6,1.8c-2.2,1.3-4,2.8-5.5,4.9
			c-1.4,2-2.5,4.3-3.3,6.8c-0.7,2.6-1.1,5.1-1.1,7.8c0,2.6,0.4,5.2,1.1,7.8c0.7,2.5,1.8,4.8,3.3,6.8c1.4,2,3.3,3.6,5.5,4.8
			c2.2,1.3,4.8,1.8,7.6,1.8c1.9,0,3.6-0.4,5.3-1.1c1.7-0.7,3.1-1.7,4.4-2.9c1.3-1.3,2.3-2.8,3.2-4.5c0.8-1.8,1.4-3.6,1.6-5.7h6
			c-0.8,6.1-3,10.8-6.6,14.2c-3.6,3.4-8.2,5.1-13.9,5.1c-3.8,0-7.1-0.7-10.1-2.1c-2.9-1.4-5.4-3.3-7.4-5.7c-2-2.3-3.5-5.2-4.5-8.4
			c-1-3.2-1.5-6.6-1.5-10.2c0-3.6,0.5-7,1.5-10.2c1-3.2,2.5-6,4.5-8.4c2-2.4,4.5-4.3,7.4-5.7s6.3-2.1,10.1-2.1
			c5.3,0,9.9,1.4,13.6,4.3c3.7,2.8,5.9,7.1,6.6,12.8h-6.1C1150.6,442.8,1149,439.9,1146.8,437.8"/>
		<path class="st0" d="M1186.2,430.9v5.1H1176v33.6c0,2,0.3,3.6,0.8,4.7c0.5,1.1,1.9,1.7,4.1,1.8c1.7,0,3.5-0.1,5.2-0.2v5.1
			c-0.9,0-1.8,0-2.7,0.1c-0.9,0.1-1.8,0.1-2.7,0.1c-4.1,0-6.9-0.7-8.5-2.4c-1.6-1.6-2.4-4.5-2.3-8.7V436h-8.7v-5.1h8.7v-15h6.1v15
			L1186.2,430.9L1186.2,430.9z"/>
		<path class="st0" d="M1201.1,421.6h-6.1v-9.8h6.1V421.6z M1201.1,480.7h-6.1v-49.8h6.1V480.7z"/>
		<path class="st0" d="M1243.9,431.6c2.9,1.4,5.4,3.3,7.4,5.7c2,2.4,3.5,5.1,4.5,8.4c1,3.2,1.5,6.6,1.5,10.2s-0.5,7-1.5,10.2
			c-1,3.2-2.6,6-4.5,8.4c-2,2.4-4.5,4.3-7.4,5.7c-2.9,1.4-6.3,2.1-10.1,2.1c-3.8,0-7.1-0.7-10-2.1c-2.9-1.4-5.4-3.3-7.4-5.7
			c-2-2.3-3.5-5.2-4.5-8.4c-1-3.2-1.6-6.6-1.6-10.2c0-3.6,0.5-7,1.6-10.2c1-3.2,2.5-6,4.5-8.4c2-2.4,4.4-4.3,7.4-5.7
			c2.9-1.4,6.3-2.1,10-2.1C1237.7,429.5,1241,430.2,1243.9,431.6 M1226.3,436.4c-2.2,1.3-4,2.8-5.5,4.9c-1.4,2-2.6,4.3-3.3,6.8
			c-0.7,2.6-1.1,5.1-1.1,7.8c0,2.6,0.4,5.2,1.1,7.8c0.7,2.5,1.8,4.8,3.3,6.8c1.4,2,3.3,3.6,5.5,4.8c2.1,1.3,4.7,1.8,7.6,1.8
			s5.4-0.6,7.7-1.8c2.2-1.3,4-2.9,5.5-4.8c1.4-2.1,2.5-4.3,3.3-6.8c0.7-2.6,1.1-5.1,1.1-7.8c0-2.7-0.4-5.2-1.1-7.8
			c-0.7-2.5-1.8-4.8-3.3-6.8c-1.4-2-3.3-3.6-5.5-4.9c-2.2-1.2-4.7-1.8-7.7-1.8C1230.9,434.6,1228.4,435.2,1226.3,436.4"/>
		<path class="st0" d="M1272.5,430.9v8.6h0.2c1.2-3,3.2-5.5,6.2-7.3c2.9-1.8,6.2-2.8,9.7-2.8c3.5,0,6.4,0.4,8.7,1.4
			c2.3,0.9,4.2,2.2,5.6,3.8c1.4,1.7,2.4,3.6,3,6c0.6,2.4,0.9,5.1,0.9,8v32h-6.1v-31.1c0-2.1-0.2-4.1-0.6-5.9c-0.4-1.9-1-3.4-2.1-4.8
			c-0.9-1.3-2.2-2.4-3.9-3.1c-1.6-0.7-3.7-1.2-6.1-1.2c-2.5,0-4.7,0.4-6.5,1.3c-1.9,0.8-3.5,2.1-4.8,3.6c-1.3,1.5-2.3,3.4-3.1,5.4
			c-0.8,2.1-1.2,4.3-1.2,6.8v29h-6.1v-49.8L1272.5,430.9L1272.5,430.9z"/>
		<path class="st0" d="M1400.5,480.7l-0.9-12.6h-0.2c-1.2,2.4-2.6,4.6-4.3,6.3c-1.7,1.8-3.6,3.2-5.6,4.3c-2.1,1.2-4.3,2-6.6,2.5
			c-2.3,0.5-4.8,0.8-7.3,0.8c-5.4,0-10.2-1-14.3-3c-4.1-2-7.5-4.5-10.2-7.9c-2.7-3.3-4.7-7.1-6.1-11.4c-1.4-4.3-2-8.8-2-13.6
			s0.7-9.3,2-13.6c1.4-4.3,3.4-8.1,6.1-11.4c2.7-3.3,6.1-6,10.2-7.9c4.1-2,8.8-2.9,14.3-2.9c3.6,0,7,0.5,10.2,1.4
			c3.2,0.9,6.1,2.4,8.6,4.3c2.5,1.9,4.7,4.3,6.4,7.1c1.7,2.9,2.9,6.2,3.6,10h-6.5c-0.2-2-0.8-4-2-6c-1.1-2.1-2.6-3.9-4.5-5.6
			c-1.9-1.6-4.2-3-6.8-4.1c-2.6-1.1-5.6-1.5-8.9-1.5c-4.6,0-8.5,0.8-11.8,2.6c-3.3,1.7-6,4.1-8.1,6.9c-2.1,2.8-3.6,6.1-4.6,9.7
			c-1,3.6-1.5,7.3-1.5,11.1c0,3.7,0.5,7.4,1.5,11.1c1,3.6,2.5,6.9,4.6,9.7c2.1,2.9,4.8,5.1,8.1,6.9c3.3,1.8,7.2,2.6,11.8,2.6
			c3.8,0,7.2-0.7,10.2-1.9c3-1.2,5.5-3,7.6-5.2c2.1-2.2,3.6-5,4.6-8c1-3.1,1.5-6.5,1.4-10.2H1376v-5.6h29.3v35L1400.5,480.7
			L1400.5,480.7z"/>
		<path class="st0" d="M1422.3,430.9v11.7h0.2c1.5-4,3.9-7.2,7.2-9.3c3.2-2.2,7.1-3.2,11.6-3v6.1c-2.8-0.1-5.3,0.2-7.5,1.1
			c-2.3,0.9-4.2,2.1-5.8,3.8c-1.6,1.6-2.9,3.5-3.8,5.7c-0.9,2.2-1.4,4.7-1.4,7.3v26.6h-6.1v-49.8L1422.3,430.9L1422.3,430.9z"/>
		<path class="st0" d="M1476.6,431.6c2.9,1.4,5.4,3.3,7.4,5.7c2,2.4,3.5,5.1,4.5,8.4c1,3.2,1.5,6.6,1.5,10.2s-0.5,7-1.5,10.2
			c-1,3.2-2.6,6-4.5,8.4c-2,2.4-4.5,4.3-7.4,5.7c-2.9,1.4-6.3,2.1-10.1,2.1s-7.1-0.7-10.1-2.1c-2.9-1.4-5.4-3.3-7.4-5.7
			c-2-2.3-3.5-5.2-4.5-8.4c-1-3.2-1.5-6.6-1.5-10.2c0-3.6,0.5-7,1.5-10.2c1-3.2,2.5-6,4.5-8.4c2-2.4,4.5-4.3,7.4-5.7
			c2.9-1.4,6.3-2.1,10.1-2.1S1473.6,430.2,1476.6,431.6 M1458.8,436.4c-2.2,1.3-4,2.8-5.5,4.9c-1.4,2-2.5,4.3-3.3,6.8
			c-0.7,2.6-1.1,5.1-1.1,7.8c0,2.6,0.4,5.2,1.1,7.8c0.7,2.5,1.8,4.8,3.3,6.8c1.4,2,3.3,3.6,5.5,4.8c2.2,1.3,4.7,1.8,7.6,1.8
			s5.4-0.6,7.7-1.8c2.2-1.3,4-2.9,5.5-4.8c1.4-2.1,2.5-4.3,3.3-6.8c0.7-2.6,1.1-5.1,1.1-7.8c0-2.7-0.4-5.2-1.1-7.8
			c-0.7-2.5-1.8-4.8-3.3-6.8c-1.4-2-3.3-3.6-5.5-4.9c-2.2-1.2-4.8-1.8-7.7-1.8C1463.5,434.6,1461,435.2,1458.8,436.4"/>
		<path class="st0" d="M1533.8,480.7v-9h-0.2c-1.6,3.3-3.9,5.9-7,7.7c-3.1,1.8-6.5,2.7-10.2,2.7c-3.1,0-5.8-0.4-8.1-1.4
			c-2.2-0.8-4-2.1-5.4-3.7c-1.4-1.6-2.4-3.6-3-5.8c-0.6-2.3-1-5-1-7.9v-32.3h6.1v32.4c0.1,4.6,1.2,7.9,3.1,10.3
			c2,2.3,5.4,3.5,10.2,3.5c2.6,0,4.9-0.6,6.7-1.7c1.9-1.1,3.4-2.6,4.6-4.5c1.2-1.8,2.1-4,2.7-6.4c0.6-2.5,0.9-4.9,0.9-7.4v-26.2h6.1
			v49.8H1533.8z"/>
		<path class="st0" d="M1556.5,430.9v9.4h0.2c1.4-3.5,3.7-6.2,6.9-8c3.2-1.9,6.8-2.9,10.9-2.9c3.8,0,7.1,0.7,9.9,2.1
			c2.8,1.4,5.1,3.3,7,5.7c1.9,2.4,3.3,5.2,4.2,8.5c0.9,3.2,1.4,6.5,1.4,10c0,3.6-0.5,6.9-1.4,10.1c-0.9,3.2-2.3,6-4.2,8.4
			c-1.8,2.3-4.2,4.3-7,5.7c-2.8,1.4-6.1,2.1-9.9,2.1c-1.8,0-3.6-0.2-5.4-0.7c-1.8-0.4-3.5-1.1-5-2c-1.5-0.9-2.9-2-4.1-3.4
			c-1.2-1.4-2.1-2.9-2.8-4.7h-0.2v27.8h-6.1v-68.2H1556.5z M1589.9,448.1c-0.6-2.6-1.6-4.8-2.9-6.8c-1.3-2-3-3.6-5-4.9
			c-2.1-1.3-4.5-1.9-7.4-1.9c-3.4,0-6.2,0.6-8.4,1.7c-2.2,1.2-4,2.7-5.4,4.6c-1.4,2-2.3,4.2-2.9,6.8c-0.5,2.6-0.8,5.3-0.8,8.1
			c0,2.6,0.3,5.1,0.9,7.7c0.6,2.5,1.6,4.8,3,6.8c1.4,2,3.2,3.6,5.4,4.9c2.2,1.3,5,1.9,8.2,1.9c2.9,0,5.4-0.7,7.4-1.9
			c2.1-1.3,3.8-2.9,5-4.9c1.3-2,2.3-4.3,2.9-6.8c0.6-2.6,0.9-5.1,0.9-7.7C1590.8,453.2,1590.5,450.7,1589.9,448.1"/>
		<path class="st1" d="M1661.8,440.6c-0.7-1.4-1.7-2.5-2.9-3.4s-2.6-1.5-4.1-2c-1.5-0.4-3.2-0.6-5-0.6c-1.4,0-2.7,0.1-4.1,0.4
			c-1.4,0.3-2.6,0.8-3.8,1.5c-1.2,0.7-2.1,1.6-2.8,2.6c-0.7,1.1-1.1,2.4-1.1,4.1c0,1.4,0.4,2.5,1,3.4c0.7,1,1.5,1.7,2.6,2.4
			c1,0.6,2.1,1.2,3.4,1.5c1.2,0.4,2.3,0.7,3.4,1l8.1,1.9c1.7,0.2,3.5,0.7,5.1,1.4c1.7,0.7,3.2,1.6,4.5,2.7c1.3,1.1,2.4,2.5,3.3,4.1
			c0.8,1.6,1.2,3.6,1.2,5.7c0,2.7-0.6,5-1.8,6.9c-1.2,1.9-2.8,3.4-4.7,4.6c-1.9,1.2-4,2.1-6.4,2.6c-2.4,0.5-4.7,0.8-7.1,0.8
			c-5.8,0-10.6-1.4-14.3-4.2c-3.6-2.8-5.7-7.2-6.2-13.3h6.1c0.3,4.2,1.8,7.2,4.5,9.3c2.7,2.1,6.1,3.1,10.2,3.1c1.5,0,3-0.1,4.6-0.5
			c1.5-0.3,3-0.8,4.4-1.6c1.4-0.8,2.4-1.8,3.3-2.9c0.9-1.2,1.3-2.7,1.3-4.4c0-1.5-0.3-2.7-0.9-3.7c-0.6-1-1.4-1.9-2.4-2.5
			c-1-0.7-2.2-1.3-3.5-1.7c-1.4-0.5-2.6-0.8-4-1.2l-7.8-1.7c-2-0.5-3.8-1.1-5.5-1.8c-1.7-0.7-3.2-1.5-4.4-2.5
			c-1.3-1-2.2-2.2-2.9-3.6c-0.7-1.4-1.1-3.2-1.1-5.4c0-2.5,0.6-4.6,1.7-6.4c1.1-1.8,2.6-3.2,4.4-4.3c1.8-1.1,3.8-2,6-2.4
			c2.2-0.6,4.4-0.8,6.6-0.8c2.5,0,4.9,0.3,7,1c2.2,0.6,4.1,1.6,5.7,3c1.6,1.3,2.9,3,3.9,5c1,2,1.5,4.3,1.6,7.1h-6.1
			C1662.9,443.6,1662.5,442,1661.8,440.6"/>
		<path class="st1" d="M1685.8,421.6h-6.1v-9.8h6.1V421.6z M1685.8,480.7h-6.1v-49.8h6.1V480.7z"/>
		<path class="st1" d="M1703.5,430.9v8.6h0.2c1.2-3,3.2-5.5,6.2-7.3c2.9-1.8,6.2-2.8,9.8-2.8c3.5,0,6.4,0.4,8.7,1.4
			c2.3,0.9,4.2,2.2,5.7,3.8c1.4,1.7,2.4,3.6,3,6c0.6,2.4,0.9,5.1,0.9,8v32h-6.1v-31.1c0-2.1-0.2-4.1-0.6-5.9c-0.4-1.9-1-3.4-2-4.8
			c-0.9-1.3-2.2-2.4-3.9-3.1c-1.7-0.7-3.7-1.2-6.1-1.2c-2.4,0-4.6,0.4-6.5,1.3c-1.9,0.8-3.5,2.1-4.9,3.6c-1.3,1.5-2.3,3.4-3.1,5.4
			c-0.7,2.1-1.1,4.3-1.2,6.8v29h-6.1v-49.8L1703.5,430.9L1703.5,430.9z"/>
		<path class="st1" d="M1779.8,437.8c-2.2-2.1-5.4-3.2-9.5-3.2c-2.9,0-5.4,0.6-7.6,1.8c-2.2,1.3-4,2.8-5.5,4.9
			c-1.4,2-2.5,4.3-3.3,6.8c-0.7,2.6-1.1,5.1-1.1,7.8c0,2.6,0.4,5.2,1.1,7.8c0.7,2.5,1.8,4.8,3.3,6.8c1.4,2,3.3,3.6,5.5,4.8
			s4.8,1.8,7.6,1.8c1.9,0,3.6-0.4,5.3-1.1c1.7-0.7,3.1-1.7,4.4-2.9c1.3-1.3,2.3-2.8,3.2-4.5c0.8-1.8,1.4-3.6,1.5-5.7h6.1
			c-0.8,6.1-3,10.8-6.6,14.2c-3.6,3.4-8.2,5.1-13.9,5.1c-3.8,0-7.1-0.7-10-2.1c-2.9-1.4-5.4-3.3-7.4-5.7c-2-2.3-3.5-5.2-4.5-8.4
			c-1-3.2-1.5-6.6-1.5-10.2c0-3.6,0.5-7,1.5-10.2c1-3.2,2.6-6,4.5-8.4c2-2.4,4.5-4.3,7.4-5.7c2.9-1.4,6.3-2.1,10-2.1
			c5.4,0,9.9,1.4,13.6,4.3c3.7,2.8,5.9,7.1,6.6,12.8h-6.1C1783.6,442.8,1782.1,439.9,1779.8,437.8"/>
		<path class="st1" d="M1803.9,464.2c0.6,2.4,1.6,4.5,2.9,6.4c1.4,1.9,3,3.4,5.1,4.6c2.1,1.3,4.5,1.8,7.4,1.8
			c4.4,0,7.9-1.2,10.4-3.5c2.5-2.3,4.2-5.4,5.2-9.3h6.1c-1.3,5.7-3.6,10-7.1,13.1c-3.5,3.1-8.3,4.6-14.6,4.6
			c-3.9,0-7.3-0.7-10.2-2.1c-2.9-1.4-5.2-3.3-7-5.7c-1.8-2.4-3.1-5.2-4-8.4c-0.9-3.2-1.3-6.6-1.3-10.1c0-3.3,0.4-6.5,1.3-9.7
			c0.9-3.1,2.2-5.9,4-8.4c1.8-2.5,4.2-4.5,7-6c2.9-1.5,6.3-2.2,10.2-2.2c4,0,7.4,0.8,10.2,2.4c2.9,1.6,5.1,3.7,6.9,6.4
			c1.8,2.6,3,5.6,3.8,9c0.8,3.4,1.1,6.8,1,10.3h-38.3C1803,459.7,1803.3,461.9,1803.9,464.2 M1834,445.7c-0.7-2.1-1.8-4-3.1-5.7
			c-1.4-1.6-3-2.9-4.9-4c-1.9-1-4.2-1.5-6.6-1.5c-2.5,0-4.7,0.5-6.7,1.5c-2,1.1-3.6,2.3-5,4c-1.4,1.6-2.4,3.6-3.2,5.7
			c-0.8,2.1-1.4,4.4-1.6,6.6h32.3C1835.2,450,1834.8,447.8,1834,445.7"/>
		<path class="st1" d="M1887.1,425.7c2.1-0.2,4.1-0.7,5.6-1.6c1.6-0.8,2.9-2.1,4-3.8c1-1.7,1.8-4.1,2.2-7.2h5v67.6h-6.1v-50.2H1880
			v-4.3C1882.6,426.1,1885,426,1887.1,425.7"/>
		<path class="st1" d="M1939.7,473.6c2.5,2.3,5.7,3.5,9.6,3.5c4,0,7.1-1,9.6-3c2.4-2,4.3-4.4,5.7-7.5c1.4-3,2.3-6.3,2.7-9.8
			c0.5-3.5,0.7-6.8,0.7-9.9h-0.2c-1.6,3.4-4,6.1-7.3,8.1c-3.2,2.1-6.8,3.1-10.7,3.1c-3.4,0-6.4-0.6-9.2-1.7
			c-2.8-1.2-5.1-2.7-7.1-4.7c-1.9-2-3.4-4.4-4.5-7.1c-1-2.8-1.6-5.8-1.6-9.1c0-3.2,0.5-6.3,1.7-9.1c1.1-2.8,2.7-5.2,4.7-7.2
			c2-2,4.4-3.6,7.2-4.8c2.8-1.2,5.8-1.7,9.2-1.7c4.1,0,7.7,0.7,10.6,1.9c2.9,1.3,5.4,3.3,7.3,6.2c2,2.9,3.4,6.6,4.3,11.2
			c0.9,4.5,1.4,10.1,1.4,16.7c0,1.4-0.1,3.1-0.2,5.3c-0.1,2.1-0.6,4.5-1.1,7c-0.6,2.5-1.4,5-2.5,7.5c-1,2.5-2.5,4.9-4.3,6.8
			c-1.8,2-4,3.7-6.6,5c-2.7,1.3-5.8,1.9-9.5,1.9c-6,0-10.8-1.4-14.4-4.3c-3.6-2.9-5.7-7.3-6.4-13.3h6.1
			C1935.7,468.2,1937.2,471.2,1939.7,473.6 M1957,451.5c2.1-0.9,3.9-2.2,5.3-3.8s2.5-3.5,3.3-5.7c0.7-2.2,1.1-4.5,1.1-7
			c0-2.4-0.3-4.7-0.9-6.8c-0.7-2.1-1.7-3.9-3-5.5c-1.4-1.6-3.1-2.8-5.3-3.7c-2.1-0.9-4.6-1.4-7.6-1.4c-2.4,0-4.6,0.5-6.5,1.4
			c-2,0.9-3.7,2.2-5.2,3.8c-1.4,1.6-2.6,3.4-3.3,5.6c-0.7,2.1-1.2,4.3-1.2,6.7c0,2.4,0.4,4.8,1.1,6.9c0.7,2.2,1.8,4.1,3.2,5.7
			c1.4,1.6,3.1,2.9,5.1,3.8c2,0.9,4.3,1.4,6.9,1.4C1952.6,452.9,1954.9,452.4,1957,451.5"/>
		<path class="st1" d="M2026.3,414v5.6c-2.1,2.1-4.7,5.1-7.6,8.8c-3,3.7-5.8,8.1-8.6,13.2c-2.8,5.1-5.2,10.9-7.3,17.5
			c-2.1,6.5-3.4,13.7-3.7,21.6h-6.5c0.4-5.7,1.2-11.1,2.3-16.3c1.2-5,2.9-10,5.1-14.9c2.2-4.9,5-9.8,8.3-14.6
			c3.3-4.9,7.3-10,12-15.3h-37.4V414L2026.3,414L2026.3,414z"/>
		<path class="st1" d="M2035.1,480.7c0-3.3,0.7-6.3,1.8-8.9c1.1-2.6,2.5-4.9,4.3-6.9c1.8-2.1,3.8-3.9,6.1-5.7c2.2-1.7,4.6-3.4,7-4.9
			c2.4-1.6,4.7-3.2,7.1-4.8c2.4-1.7,4.5-3.4,6.3-5.3c1.9-1.9,3.3-3.7,4.2-5.7c0.9-2,1.4-4.3,1.4-7c0-2.2-0.4-4.2-1.2-5.9
			c-0.8-1.7-1.9-3.1-3.3-4.3c-1.4-1.2-3-2.1-4.8-2.7c-1.8-0.6-3.8-0.9-5.8-0.9c-2.8,0-5.1,0.5-7.1,1.5c-2,1-3.6,2.4-4.8,4.2
			c-1.2,1.7-2.1,3.7-2.6,6c-0.6,2.3-0.8,4.6-0.7,7.1h-6.1c-0.1-3.5,0.3-6.7,1.2-9.6c0.9-2.9,2.2-5.5,4-7.6c1.8-2.1,4.1-3.8,6.8-5
			c2.7-1.2,5.9-1.8,9.6-1.8c2.9,0,5.7,0.4,8.2,1.2c2.5,0.8,4.8,2,6.7,3.6c1.9,1.6,3.4,3.6,4.4,5.9c1.1,2.4,1.6,5.2,1.6,8.4
			c0,2.9-0.4,5.4-1.4,7.7c-0.9,2.3-2.1,4.4-3.7,6.4c-1.6,2-3.4,3.7-5.4,5.4c-2,1.6-4.2,3.2-6.4,4.6c-1.6,1.1-3.5,2.3-5.7,3.6
			c-2.2,1.3-4.3,2.8-6.4,4.4s-3.8,3.4-5.3,5.2c-1.5,1.9-2.5,4-2.9,6.2h37.6v5.6h-44.6V480.7z"/>
	</g>
</g>
</svg>
